<svg width="16" height="15" viewBox="0 0 16 15" fill="none" xmlns="http://www.w3.org/2000/svg">
<path d="M5.02724 14.0855C11.0561 14.0855 14.3545 8.88135 14.3545 4.36966C14.3545 4.22336 14.3514 4.0738 14.3451 3.9275C14.9868 3.44414 15.5405 2.84542 15.9803 2.1595C15.3827 2.43645 14.7482 2.61732 14.0986 2.69594C14.7826 2.26881 15.2948 1.59781 15.5402 0.807323C14.8967 1.2046 14.1929 1.48485 13.459 1.63605C12.9646 1.08878 12.3108 0.726415 11.5988 0.604992C10.8868 0.483568 10.1563 0.609846 9.52009 0.964302C8.8839 1.31876 8.37753 1.88165 8.07927 2.56595C7.781 3.25025 7.70745 4.01784 7.86998 4.75005C6.5669 4.68194 5.2921 4.32932 4.12823 3.71508C2.96436 3.10083 1.93741 2.23866 1.11394 1.18446C0.695409 1.93612 0.567338 2.82558 0.755755 3.67207C0.944172 4.51856 1.43494 5.25855 2.12831 5.74167C1.60777 5.72445 1.09863 5.57846 0.642957 5.31576V5.35802C0.642491 6.14684 0.904283 6.91147 1.38383 7.52196C1.86338 8.13244 2.53109 8.5511 3.27346 8.70676C2.79126 8.84419 2.28517 8.86421 1.79435 8.76528C2.00383 9.44366 2.41141 10.037 2.9602 10.4625C3.50898 10.888 4.1716 11.1243 4.85557 11.1387C3.69439 12.0888 2.26 12.6041 0.783409 12.6017C0.521548 12.6013 0.259945 12.5846 0 12.5516C1.50005 13.5541 3.24502 14.0865 5.02724 14.0855Z" fill="#0C0C0C"/>
</svg>
