<svg width="18" height="13" viewBox="0 0 18 13" fill="none" xmlns="http://www.w3.org/2000/svg">
<path d="M16.9393 2.99396C16.9393 2.99396 16.7768 1.84628 16.2761 1.34235C15.6421 0.679101 14.9333 0.67585 14.6082 0.636836C12.2803 0.467773 8.7853 0.467773 8.7853 0.467773H8.7788C8.7788 0.467773 5.28376 0.467773 2.9559 0.636836C2.63079 0.67585 1.92202 0.679101 1.28804 1.34235C0.787355 1.84628 0.628047 2.99396 0.628047 2.99396C0.628047 2.99396 0.458984 4.3432 0.458984 5.6892V6.95066C0.458984 8.29666 0.624795 9.64591 0.624795 9.64591C0.624795 9.64591 0.787355 10.7936 1.28479 11.2975C1.91877 11.9608 2.75108 11.938 3.12172 12.0095C4.45471 12.1363 8.78205 12.1753 8.78205 12.1753C8.78205 12.1753 12.2803 12.1688 14.6082 12.003C14.9333 11.964 15.6421 11.9608 16.2761 11.2975C16.7768 10.7936 16.9393 9.64591 16.9393 9.64591C16.9393 9.64591 17.1051 8.29991 17.1051 6.95066V5.6892C17.1051 4.3432 16.9393 2.99396 16.9393 2.99396ZM7.06217 8.48198V3.8035L11.5586 6.15087L7.06217 8.48198Z" fill="#0C0C0C"/>
</svg>
