<svg width="34" height="32" viewBox="0 0 34 32" fill="none" xmlns="http://www.w3.org/2000/svg">
<path opacity="0.4" d="M26.2566 8.16016C30.3416 8.16016 33.6666 11.5931 33.6666 15.8125V24.1997C33.6666 28.4088 30.3499 31.8332 26.2732 31.8332L7.74656 31.8332C3.6599 31.8332 0.333229 28.4019 0.333229 24.1825V15.7953C0.333229 11.5863 3.65156 8.16016 7.7299 8.16016H9.29656L26.2566 8.16016Z" fill="url(#paint0_linear_4675_6)"/>
<path d="M17.9106 22.7288L22.7589 17.7823C23.2589 17.2711 23.2589 16.4484 22.7556 15.9388C22.2522 15.4309 21.4406 15.4326 20.9406 15.9422L18.2856 18.6507L18.2856 1.47C18.2856 0.750538 17.7106 0.166504 17.0006 0.166504C16.2922 0.166504 15.7189 0.750538 15.7189 1.47L15.7189 18.6507L13.0622 15.9422C12.5622 15.4326 11.7506 15.4309 11.2472 15.9388C10.9956 16.1944 10.8689 16.5279 10.8689 16.8631C10.8689 17.1949 10.9956 17.5284 11.2439 17.7823L16.0922 22.7288C16.3339 22.9743 16.6606 23.1131 17.0006 23.1131C17.3422 23.1131 17.6689 22.9743 17.9106 22.7288Z" fill="url(#paint1_linear_4675_6)"/>
<defs>
<linearGradient id="paint0_linear_4675_6" x1="33.6666" y1="19.9967" x2="0.333229" y2="19.9967" gradientUnits="userSpaceOnUse">
<stop stop-color="#6F77FF"/>
<stop offset="1" stop-color="#943E87"/>
</linearGradient>
<linearGradient id="paint1_linear_4675_6" x1="23.1335" y1="11.6398" x2="10.8689" y2="11.6398" gradientUnits="userSpaceOnUse">
<stop stop-color="#6F77FF"/>
<stop offset="1" stop-color="#943E87"/>
</linearGradient>
</defs>
</svg>
