<svg width="18" height="17" viewBox="0 0 18 17" fill="none" xmlns="http://www.w3.org/2000/svg">
<path d="M8.71955 1.4988C10.9434 1.4988 11.2067 1.50856 12.0813 1.54757C12.8941 1.58333 13.333 1.71988 13.6256 1.83368C14.0125 1.98323 14.2921 2.1653 14.5815 2.45466C14.8741 2.74726 15.0529 3.02362 15.2024 3.41051C15.3162 3.70312 15.4528 4.14528 15.4886 4.95483C15.5276 5.83265 15.5373 6.096 15.5373 8.31657C15.5373 10.5404 15.5276 10.8037 15.4886 11.6783C15.4528 12.4911 15.3162 12.93 15.2024 13.2226C15.0529 13.6095 14.8708 13.8891 14.5815 14.1785C14.2889 14.4711 14.0125 14.6499 13.6256 14.7995C13.333 14.9132 12.8908 15.0498 12.0813 15.0856C11.2035 15.1246 10.9401 15.1343 8.71955 15.1343C6.49573 15.1343 6.23239 15.1246 5.35781 15.0856C4.54501 15.0498 4.1061 14.9132 3.81349 14.7995C3.4266 14.6499 3.147 14.4678 2.85764 14.1785C2.56503 13.8859 2.38622 13.6095 2.23666 13.2226C2.12287 12.93 1.98632 12.4879 1.95056 11.6783C1.91154 10.8005 1.90179 10.5371 1.90179 8.31657C1.90179 6.09275 1.91154 5.8294 1.95056 4.95483C1.98632 4.14203 2.12287 3.70312 2.23666 3.41051C2.38622 3.02362 2.56829 2.74401 2.85764 2.45466C3.15025 2.16205 3.4266 1.98323 3.81349 1.83368C4.1061 1.71988 4.54827 1.58333 5.35781 1.54757C6.23239 1.50856 6.49573 1.4988 8.71955 1.4988ZM8.71955 0C6.45997 0 6.17712 0.0097536 5.28954 0.048768C4.40521 0.0877824 3.79724 0.230835 3.27054 0.435661C2.72109 0.65024 2.25617 0.933094 1.7945 1.39802C1.32958 1.85969 1.04672 2.32461 0.832145 2.87081C0.627319 3.40075 0.484267 4.00548 0.445252 4.8898C0.406238 5.78063 0.396484 6.06349 0.396484 8.32307C0.396484 10.5827 0.406238 10.8655 0.445252 11.7531C0.484267 12.6374 0.627319 13.2454 0.832145 13.7721C1.04672 14.3215 1.32958 14.7865 1.7945 15.2481C2.25617 15.7098 2.72109 15.9959 3.26729 16.2072C3.79724 16.4121 4.40196 16.5551 5.28629 16.5941C6.17386 16.6331 6.45672 16.6429 8.7163 16.6429C10.9759 16.6429 11.2587 16.6331 12.1463 16.5941C13.0306 16.5551 13.6386 16.4121 14.1653 16.2072C14.7115 15.9959 15.1764 15.7098 15.6381 15.2481C16.0998 14.7865 16.3859 14.3215 16.5972 13.7753C16.802 13.2454 16.9451 12.6407 16.9841 11.7563C17.0231 10.8688 17.0329 10.5859 17.0329 8.32632C17.0329 6.06674 17.0231 5.78388 16.9841 4.89631C16.9451 4.01198 16.802 3.40401 16.5972 2.87731C16.3924 2.32461 16.1095 1.85969 15.6446 1.39802C15.1829 0.936345 14.718 0.65024 14.1718 0.438912C13.6419 0.234086 13.0371 0.0910336 12.1528 0.0520192C11.262 0.0097536 10.9791 0 8.71955 0Z" fill="#0C0C0C"/>
<path d="M8.71954 4.04785C6.35917 4.04785 4.44421 5.96281 4.44421 8.32318C4.44421 10.6835 6.35917 12.5985 8.71954 12.5985C11.0799 12.5985 12.9949 10.6835 12.9949 8.32318C12.9949 5.96281 11.0799 4.04785 8.71954 4.04785ZM8.71954 11.0964C7.18823 11.0964 5.94627 9.85449 5.94627 8.32318C5.94627 6.79186 7.18823 5.54991 8.71954 5.54991C10.2509 5.54991 11.4928 6.79186 11.4928 8.32318C11.4928 9.85449 10.2509 11.0964 8.71954 11.0964Z" fill="#0C0C0C"/>
<path d="M14.1621 3.87849C14.1621 4.43119 13.7135 4.87661 13.164 4.87661C12.6113 4.87661 12.1659 4.42794 12.1659 3.87849C12.1659 3.32579 12.6146 2.88037 13.164 2.88037C13.7135 2.88037 14.1621 3.32904 14.1621 3.87849Z" fill="#0C0C0C"/>
</svg>
