<svg width="34" height="34" viewBox="0 0 34 34" fill="none" xmlns="http://www.w3.org/2000/svg">
<path opacity="0.4" d="M33.6667 17.0082C33.6667 26.1897 26.186 33.6668 17 33.6668C7.81407 33.6668 0.333374 26.1897 0.333374 17.0082C0.333374 7.81058 7.81407 0.333496 17 0.333496C26.186 0.333496 33.6667 7.81058 33.6667 17.0082Z" fill="url(#paint0_linear_4675_3)"/>
<path d="M23.6667 17.0083C23.6667 17.4295 23.5341 17.8523 23.2689 18.1909C23.2192 18.2574 22.9872 18.5311 22.8049 18.7094L22.7055 18.8066C21.3134 20.2825 17.8499 22.502 16.0933 23.2132C16.0933 23.2294 15.0492 23.6522 14.5521 23.6668H14.4858C13.7235 23.6668 13.0109 23.2472 12.6463 22.5668C12.4474 22.1925 12.2652 21.1071 12.2486 21.0925C12.0994 20.1188 12 18.6284 12 16.9921C12 15.2764 12.0994 13.7195 12.2817 12.7636C12.2817 12.7474 12.464 11.8726 12.58 11.581C12.7623 11.1614 13.0938 10.8033 13.508 10.5765C13.8395 10.4161 14.1875 10.3335 14.5521 10.3335C14.9332 10.3513 15.6458 10.5927 15.9276 10.7061C17.7836 11.419 21.33 13.7519 22.6889 15.1776C22.9209 15.4044 23.1695 15.6814 23.2358 15.7446C23.5175 16.101 23.6667 16.5384 23.6667 17.0083Z" fill="url(#paint1_linear_4675_3)"/>
<defs>
<linearGradient id="paint0_linear_4675_3" x1="17" y1="0.333496" x2="17" y2="33.6668" gradientUnits="userSpaceOnUse">
<stop stop-color="#6F77FF"/>
<stop offset="1" stop-color="#943E87"/>
</linearGradient>
<linearGradient id="paint1_linear_4675_3" x1="17.8333" y1="10.3335" x2="17.8333" y2="23.6668" gradientUnits="userSpaceOnUse">
<stop stop-color="#6F77FF"/>
<stop offset="1" stop-color="#943E87"/>
</linearGradient>
</defs>
</svg>
