<svg width="30" height="34" viewBox="0 0 30 34" fill="none" xmlns="http://www.w3.org/2000/svg">
<path opacity="0.4" d="M8.73207 11.5149V9.27851C8.749 5.95045 11.5434 3.23201 14.9983 3.23201C17.6403 3.23201 20.0113 4.87202 20.875 7.32541C21.1629 8.08744 22.0097 8.48336 22.7718 8.21996C23.1444 8.10234 23.4492 7.83729 23.6186 7.48941C23.788 7.14153 23.8218 6.74395 23.6863 6.37951C22.3992 2.76983 18.9105 0.333008 14.9644 0.333008C9.91757 0.333008 5.80218 4.36014 5.76831 9.31164V11.8512L8.73207 11.5149Z" fill="url(#paint0_linear_4675_18)"/>
<path fill-rule="evenodd" clip-rule="evenodd" d="M7.94802 11.5181H22.0521C25.9812 11.5181 29.1668 14.6341 29.1668 18.4773V26.7071C29.1668 30.5503 25.9812 33.6663 22.0521 33.6663H7.94802C4.01893 33.6663 0.833313 30.5503 0.833313 26.7071V18.4773C0.833313 14.6341 4.01893 11.5181 7.94802 11.5181ZM14.9914 25.8804C15.8213 25.8804 16.4818 25.2343 16.4818 24.4226V20.7449C16.4818 19.9497 15.8213 19.3036 14.9914 19.3036C14.1785 19.3036 13.518 19.9497 13.518 20.7449V24.4226C13.518 25.2343 14.1785 25.8804 14.9914 25.8804Z" fill="url(#paint1_linear_4675_18)"/>
<defs>
<linearGradient id="paint0_linear_4675_18" x1="14.7691" y1="0.333008" x2="14.7691" y2="11.8512" gradientUnits="userSpaceOnUse">
<stop stop-color="#6F77FF"/>
<stop offset="1" stop-color="#943E87"/>
</linearGradient>
<linearGradient id="paint1_linear_4675_18" x1="15.0001" y1="11.5181" x2="15.0001" y2="33.6663" gradientUnits="userSpaceOnUse">
<stop stop-color="#6F77FF"/>
<stop offset="1" stop-color="#943E87"/>
</linearGradient>
</defs>
</svg>
