<svg width="38" height="30" viewBox="0 0 38 30" fill="none" xmlns="http://www.w3.org/2000/svg">
<path d="M21.2619 5.75093C21.178 4.94037 21.0906 4.09938 20.8756 3.26018C20.2902 1.25255 18.6684 1.59919e-05 16.9294 1.59919e-05C15.9595 -0.00356268 14.7326 0.594075 14.037 1.19887L8.27151 6.02828H5.25329C3.03201 6.02828 1.2459 7.74067 0.908603 10.2117C0.621987 12.5844 0.55208 17.0631 0.908603 19.6737C1.21794 22.2844 2.92366 23.9717 5.25329 23.9717H8.27151L14.1489 28.8727C14.7518 29.397 15.8162 29.9982 16.7949 29.9982C16.8578 30 16.9137 30 16.9696 30C18.7418 30 20.3024 28.7009 20.8879 26.6987C21.1098 25.8469 21.1867 25.0489 21.2619 24.2777L21.3405 23.5136C21.6411 21.0354 21.6411 8.94847 21.3405 6.48814L21.2619 5.75093Z" fill="url(#paint0_linear_4675_25)"/>
<path opacity="0.4" d="M28.0107 5.82414C27.5301 5.11556 26.5776 4.93842 25.8803 5.43048C25.19 5.92613 25.0187 6.9031 25.4993 7.60989C26.8363 9.57995 27.572 12.2031 27.572 14.9998C27.572 17.7948 26.8363 20.4197 25.4993 22.3898C25.0187 23.0966 25.19 24.0735 25.882 24.5692C26.1407 24.7517 26.443 24.8483 26.7541 24.8483C27.2557 24.8483 27.7241 24.596 28.0107 24.1755C29.6989 21.6884 30.6304 18.43 30.6304 14.9998C30.6304 11.5697 29.6989 8.31131 28.0107 5.82414Z" fill="url(#paint1_linear_4675_25)"/>
<path opacity="0.4" d="M33.2786 0.761935C32.8015 0.0551481 31.8456 -0.125575 31.15 0.368282C30.4597 0.863927 30.2884 1.8409 30.7672 2.54769C33.0287 5.87943 34.2748 10.3027 34.2748 14.9997C34.2748 19.6985 33.0287 24.1217 30.7672 27.4534C30.2884 28.162 30.4597 29.1372 31.1517 29.6328C31.4104 29.8153 31.711 29.912 32.0221 29.912C32.5236 29.912 32.9938 29.6597 33.2786 29.2392C35.8931 25.3903 37.3332 20.3337 37.3332 14.9997C37.3332 9.66924 35.8931 4.61079 33.2786 0.761935Z" fill="url(#paint2_linear_4675_25)"/>
<defs>
<linearGradient id="paint0_linear_4675_25" x1="11.1163" y1="0" x2="11.1163" y2="30" gradientUnits="userSpaceOnUse">
<stop stop-color="#6F77FF"/>
<stop offset="1" stop-color="#943E87"/>
</linearGradient>
<linearGradient id="paint1_linear_4675_25" x1="27.9285" y1="5.15186" x2="27.9285" y2="24.8483" gradientUnits="userSpaceOnUse">
<stop stop-color="#6F77FF"/>
<stop offset="1" stop-color="#943E87"/>
</linearGradient>
<linearGradient id="paint2_linear_4675_25" x1="33.9145" y1="0.0893555" x2="33.9145" y2="29.912" gradientUnits="userSpaceOnUse">
<stop stop-color="#6F77FF"/>
<stop offset="1" stop-color="#943E87"/>
</linearGradient>
</defs>
</svg>
